# xmcd
#
# Track frame offsets: 
#        150
#        11011
#        23463
#        37391
#        51603
#        65302
#        76940
#        90306
#        106999
#        120816
#        133049
#        149499
#        160897
#        173522
#        185100
#        196285
#        212072
#        224631
#        237431
#        248967
#        262609
#        276399
#        289774
#        302084
#        314178
#
# Disc length: 4334 seconds
#
# Revision: 0
# Processed by: cddbd v1.5.2PL0 Copyright (c) Steve Scherf et al.
# Submitted via: ExactAudioCopyFreeDBPlugin 1.0
#
DISCID=7410ec19
DTITLE=Waylon Jennings - Nashville Rebel - CD 02
DYEAR=2006
DGENRE=Country
TTITLE0=The Taker
TTITLE1=Mississippi Woman
TTITLE2=Lovin' Her Was Easier (Than Anything I'll Ever Do Again)
TTITLE3=(Don't Let the Sun Set on You) Tulsa
TTITLE4=Sweet Dream Woman
TTITLE5=Ladies Love Outlaws
TTITLE6=Under Your Spell Again (With Jessi Colter)
TTITLE7=Lonesome, On'ry and Mean
TTITLE8=Pretend I Never Happened
TTITLE9=You Can Have Her
TTITLE10=Honky Tonk Heroes
TTITLE11=Black Rose
TTITLE12=We Had It All
TTITLE13=You Asked Me To
TTITLE14=This Time
TTITLE15=It's Not Supposed to Be That Way
TTITLE16=Slow Rollin' Low
TTITLE17=I'm a Ramblin' Man
TTITLE18=Rainy Day Woman
TTITLE19=Amanda
TTITLE20=Bob Wills Is Still the King
TTITLE21=Are You Sure Hank Done It This Way
TTITLE22=Waymore's Blues
TTITLE23=The Door Is Always Open
TTITLE24=Dreaming My Dreams with You
EXTD=
EXTT0=
EXTT1=
EXTT2=
EXTT3=
EXTT4=
EXTT5=
EXTT6=
EXTT7=
EXTT8=
EXTT9=
EXTT10=
EXTT11=
EXTT12=
EXTT13=
EXTT14=
EXTT15=
EXTT16=
EXTT17=
EXTT18=
EXTT19=
EXTT20=
EXTT21=
EXTT22=
EXTT23=
EXTT24=
PLAYORDER=
